{
    "asset" : {
        "generator" : "Khronos glTF Blender I/O v1.8.19",
        "version" : "2.0"
    },
    "scene" : 0,
    "scenes" : [
        {
            "name" : "Scene",
            "nodes" : [
                0,
                1
            ]
        }
    ],
    "nodes" : [
        {
            "name" : "Empty"
        },
        {
            "mesh" : 0,
            "name" : "10302_Pen_v2_L3",
            "rotation" : [
                0.5848506689071655,
                -0.45727089047431946,
                -0.16229939460754395,
                0.6500093340873718
            ]
        }
    ],
    "materials" : [
        {
            "doubleSided" : true,
            "name" : "10302_Pen_Diffuse_Glass",
            "pbrMetallicRoughness" : {
                "baseColorFactor" : [
                    0.014367939904332161,
                    0.09083334356546402,
                    0.013504729606211185,
                    0.5
                ],
                "metallicFactor" : 0,
                "roughnessFactor" : 0.8999999761581421
            }
        },
        {
            "doubleSided" : true,
            "name" : "10302_Pen_Diffuse",
            "pbrMetallicRoughness" : {
                "baseColorTexture" : {
                    "index" : 0
                },
                "metallicFactor" : 0,
                "roughnessFactor" : 0.8999999761581421
            }
        }
    ],
    "meshes" : [
        {
            "name" : "10302_Pen_v2_L3",
            "primitives" : [
                {
                    "attributes" : {
                        "POSITION" : 0,
                        "NORMAL" : 1,
                        "TEXCOORD_0" : 2
                    },
                    "indices" : 3,
                    "material" : 0
                },
                {
                    "attributes" : {
                        "POSITION" : 4,
                        "NORMAL" : 5,
                        "TEXCOORD_0" : 6
                    },
                    "indices" : 7,
                    "material" : 1
                }
            ]
        }
    ],
    "textures" : [
        {
            "sampler" : 0,
            "source" : 0
        }
    ],
    "images" : [
        {
            "bufferView" : 8,
            "mimeType" : "image/jpeg",
            "name" : "10302_Pen_v1_Diffuse"
        }
    ],
    "accessors" : [
        {
            "bufferView" : 0,
            "componentType" : 5126,
            "count" : 5004,
            "max" : [
                5.03980016708374,
                0.39739999175071716,
                0.18880000710487366
            ],
            "min" : [
                -4.883399963378906,
                -0.39739999175071716,
                -0.6060000061988831
            ],
            "type" : "VEC3"
        },
        {
            "bufferView" : 1,
            "componentType" : 5126,
            "count" : 5004,
            "type" : "VEC3"
        },
        {
            "bufferView" : 2,
            "componentType" : 5126,
            "count" : 5004,
            "type" : "VEC2"
        },
        {
            "bufferView" : 3,
            "componentType" : 5123,
            "count" : 26880,
            "type" : "SCALAR"
        },
        {
            "bufferView" : 4,
            "componentType" : 5126,
            "count" : 7028,
            "max" : [
                4.400599956512451,
                0.38690000772476196,
                0.5947999954223633
            ],
            "min" : [
                -5.03980016708374,
                -0.38690000772476196,
                -0.5954999923706055
            ],
            "type" : "VEC3"
        },
        {
            "bufferView" : 5,
            "componentType" : 5126,
            "count" : 7028,
            "type" : "VEC3"
        },
        {
            "bufferView" : 6,
            "componentType" : 5126,
            "count" : 7028,
            "type" : "VEC2"
        },
        {
            "bufferView" : 7,
            "componentType" : 5123,
            "count" : 36096,
            "type" : "SCALAR"
        }
    ],
    "bufferViews" : [
        {
            "buffer" : 0,
            "byteLength" : 60048,
            "byteOffset" : 0
        },
        {
            "buffer" : 0,
            "byteLength" : 60048,
            "byteOffset" : 60048
        },
        {
            "buffer" : 0,
            "byteLength" : 40032,
            "byteOffset" : 120096
        },
        {
            "buffer" : 0,
            "byteLength" : 53760,
            "byteOffset" : 160128
        },
        {
            "buffer" : 0,
            "byteLength" : 84336,
            "byteOffset" : 213888
        },
        {
            "buffer" : 0,
            "byteLength" : 84336,
            "byteOffset" : 298224
        },
        {
            "buffer" : 0,
            "byteLength" : 56224,
            "byteOffset" : 382560
        },
        {
            "buffer" : 0,
            "byteLength" : 72192,
            "byteOffset" : 438784
        },
        {
            "buffer" : 0,
            "byteLength" : 87246,
            "byteOffset" : 510976
        }
    ],
    "samplers" : [
        {
            "magFilter" : 9729,
            "minFilter" : 9987
        }
    ],
    "buffers" : [
        {
            "byteLength" : 598224,
            "uri" : "data:application/octet-stream;base64,"
        }
    ]
}
