{
    "asset" : {
        "generator" : "Khronos glTF Blender I/O v1.8.19",
        "version" : "2.0"
    },
    "scene" : 0,
    "scenes" : [
        {
            "name" : "Scene",
            "nodes" : [
                0
            ]
        }
    ],
    "nodes" : [
        {
            "mesh" : 0,
            "name" : "10310_ruler_v1_iterations-2",
            "rotation" : [
                0.7071068286895752,
                0,
                0,
                0.7071067094802856
            ]
        }
    ],
    "materials" : [
        {
            "doubleSided" : true,
            "name" : "10310_ruler_v1",
            "pbrMetallicRoughness" : {
                "baseColorTexture" : {
                    "index" : 0
                },
                "metallicFactor" : 0,
                "roughnessFactor" : 0.8999999761581421
            }
        }
    ],
    "meshes" : [
        {
            "name" : "10310_ruler_v1_iterations-2",
            "primitives" : [
                {
                    "attributes" : {
                        "POSITION" : 0,
                        "NORMAL" : 1,
                        "TEXCOORD_0" : 2
                    },
                    "indices" : 3,
                    "material" : 0
                }
            ]
        }
    ],
    "textures" : [
        {
            "sampler" : 0,
            "source" : 0
        }
    ],
    "images" : [
        {
            "bufferView" : 4,
            "mimeType" : "image/jpeg",
            "name" : "10310_ruler_V1_diffuse"
        }
    ],
    "accessors" : [
        {
            "bufferView" : 0,
            "componentType" : 5126,
            "count" : 4257,
            "max" : [
                15.740799903869629,
                0.10080000013113022,
                1.006700038909912
            ],
            "min" : [
                -15.740599632263184,
                0,
                -1.006600022315979
            ],
            "type" : "VEC3"
        },
        {
            "bufferView" : 1,
            "componentType" : 5126,
            "count" : 4257,
            "type" : "VEC3"
        },
        {
            "bufferView" : 2,
            "componentType" : 5126,
            "count" : 4257,
            "type" : "VEC2"
        },
        {
            "bufferView" : 3,
            "componentType" : 5123,
            "count" : 23616,
            "type" : "SCALAR"
        }
    ],
    "bufferViews" : [
        {
            "buffer" : 0,
            "byteLength" : 51084,
            "byteOffset" : 0
        },
        {
            "buffer" : 0,
            "byteLength" : 51084,
            "byteOffset" : 51084
        },
        {
            "buffer" : 0,
            "byteLength" : 34056,
            "byteOffset" : 102168
        },
        {
            "buffer" : 0,
            "byteLength" : 47232,
            "byteOffset" : 136224
        },
        {
            "buffer" : 0,
            "byteLength" : 236325,
            "byteOffset" : 183456
        }
    ],
    "samplers" : [
        {
            "magFilter" : 9729,
            "minFilter" : 9987
        }
    ],
    "buffers" : [
        {
            "byteLength" : 419784,
            "uri" : "data:application/octet-stream;base64,"
        }
    ]
}
